# 
# Wavefront OBJ file
# Converted by the 3D Exploration 1.5.30
# XDimension Software, LLC
# http://www.xdsoft.com/explorer/
# 
mtllib Mine.mtl
# object Mine
g Mine
v 4.3925 -6.5528 -6.5618
v -4.275 0 3.83866e-10
v 4.3925 -6.5528 6.5618
v 4.3925 6.5708 -6.5618
v 4.3925 6.5708 6.5618
vt 0.955 0.671667
vt 0.5 0.52963
vt 1.045 0.671667
vt 0 0
vt 1 0.5
vt 0 0.5
vt 1 0
vt 0.499314 0.52963
vt 1.04506 0.671667
vt 0.955062 0.671667
# 10 texture verticies
vn -0.603069 -0.797689 0
vn 0.816497 0.408248 0.408248
vn 0.57735 0.57735 0.57735
vn -0.604121 0.796892 0
vn 1 0 0
vn -0.603595 0 -0.797291
vn -0.603595 0 0.797291
# 7 normals
usemtl Material__1
f 3/1/1 2/2/1 1/3/1
f 5/1/2 2/2/3 2/2/3
f 2/2/4 5/1/4 4/3/4
f 3/4/5 4/5/5 5/6/2
f 4/5/5 3/4/5 1/7/5
f 2/8/6 4/9/6 1/10/6
f 2/8/7 3/10/7 5/9/7
