# 
# Wavefront OBJ file
# Converted by the 3D Exploration 1.5.30
# XDimension Software, LLC
# http://www.xdsoft.com/explorer/
# 
mtllib Mine.mtl
# object Mine
g Mine
v 2.0425 -6.01174 -6.02
v -2.375 -2.75 2.75
v 2.0425 -6.01174 6.02
v -2.375 -2.75 -2.75
v 2.0425 6.02826 -6.02
v -2.375 2.75 2.75
v 2.0425 6.02826 6.02
v -2.375 2.75 -2.75
v 4.375 -5 -5
v 4.375 -5 5
v 4.375 5 5
v 4.375 5 -5
vt 0.914597 0.625
vt 0 0.75
vt 1 0.75
vt 0.0840319 0.625
vt 0.915282 0.5
vt 0 0.625
vt 1 0.625
vt 0.0847176 0.5
vt 0 0.5
vt 0.364203 0.25
vt 0.5 0.5
vt 0.135797 0.25
vt 1 1
vt 0 1
vt 0.36386 0.25
vt 0.135454 0.25
vt 1 0.5
vt 0.5 0.375
vt 1 0.375
# 19 texture verticies
vn 0.400664 0 -0.916225
vn 0.400664 0 0.916225
vn 0.397937 -0.917413 0
vn 0.403382 0.915032 0
vn -0.593995 -0.804469 0
vn -0.595936 0.803032 0
vn 1 0 0
vn -0.594966 0 0.803751
vn -0.594966 0 -0.803751
vn -1 0 0
# 10 normals
usemtl Material__1
f 12/1/1 1/2/1 5/3/1
f 3/2/2 11/1/2 7/3/2
f 1/2/1 12/1/1 9/4/1
f 3/2/2 10/4/2 11/1/2
f 9/5/3 3/6/3 1/7/3
f 11/8/4 5/7/4 7/6/4
f 5/7/4 11/8/4 12/5/4
f 3/6/3 9/5/3 10/8/3
f 3/9/5 4/10/5 1/11/5
f 4/10/5 3/9/5 2/12/5
f 7/9/6 8/10/6 6/12/6
f 8/10/6 7/9/6 5/11/6
f 12/13/7 10/2/7 9/3/7
f 10/2/7 12/13/7 11/14/7
f 6/15/8 3/9/8 7/11/8
f 3/9/8 6/15/8 2/16/8
f 4/16/9 5/11/9 1/9/9
f 5/11/9 4/16/9 8/15/9
f 8/17/10 2/18/10 6/11/10
f 2/18/10 8/17/10 4/19/10
